{
    "asset" : {
        "generator" : "Khronos glTF Blender I/O v1.6.16",
        "version" : "2.0"
    },
    "scene" : 0,
    "scenes" : [
        {
            "name" : "Scene",
            "nodes" : [
                5
            ]
        }
    ],
    "nodes" : [
        {
            "name" : "Slide",
            "rotation" : [
                9.049699656316079e-08,
                -0.7071068286895752,
                1.5196209801615623e-07,
                0.7071068286895752
            ],
            "translation" : [
                -0.002120195422321558,
                -1.605942726135254,
                -1.1920742988586426
            ]
        },
        {
            "name" : "Trigger",
            "rotation" : [
                -2.931699896180362e-07,
                -1.689754469680338e-07,
                6.413098674329376e-08,
                1
            ],
            "translation" : [
                -0.008654706180095673,
                0.44192880392074585,
                0.6694825291633606
            ]
        },
        {
            "name" : "Magazine",
            "rotation" : [
                -0.5835280418395996,
                -1.60944850335909e-07,
                8.345093505113255e-08,
                0.8120930194854736
            ],
            "translation" : [
                -0.01136054191738367,
                -1.8523472547531128,
                4.11830472946167
            ]
        },
        {
            "children" : [
                0,
                1,
                2
            ],
            "name" : "Control",
            "rotation" : [
                -4.804206810149481e-09,
                0.7071068286895752,
                -1.5897892069460795e-07,
                0.7071067094802856
            ],
            "scale" : [
                1,
                0.9999999403953552,
                1
            ],
            "translation" : [
                1.192073941230774,
                -3.1358184814453125,
                -0.0021214813459664583
            ]
        },
        {
            "mesh" : 0,
            "name" : "Muzzle",
            "skin" : 0
        },
        {
            "children" : [
                4,
                3
            ],
            "name" : "PistolArmature",
            "rotation" : [
                0,
                0,
                0.7071067094802856,
                -0.7071068286895752
            ],
            "translation" : [
                1.367218255996704,
                2.4352164268493652,
                -0.002565622329711914
            ]
        }
    ],
    "animations" : [
        {
            "channels" : [
                {
                    "sampler" : 0,
                    "target" : {
                        "node" : 3,
                        "path" : "translation"
                    }
                },
                {
                    "sampler" : 1,
                    "target" : {
                        "node" : 3,
                        "path" : "rotation"
                    }
                },
                {
                    "sampler" : 2,
                    "target" : {
                        "node" : 3,
                        "path" : "scale"
                    }
                },
                {
                    "sampler" : 3,
                    "target" : {
                        "node" : 0,
                        "path" : "translation"
                    }
                },
                {
                    "sampler" : 4,
                    "target" : {
                        "node" : 0,
                        "path" : "rotation"
                    }
                },
                {
                    "sampler" : 5,
                    "target" : {
                        "node" : 0,
                        "path" : "scale"
                    }
                },
                {
                    "sampler" : 6,
                    "target" : {
                        "node" : 1,
                        "path" : "translation"
                    }
                },
                {
                    "sampler" : 7,
                    "target" : {
                        "node" : 1,
                        "path" : "rotation"
                    }
                },
                {
                    "sampler" : 8,
                    "target" : {
                        "node" : 1,
                        "path" : "scale"
                    }
                },
                {
                    "sampler" : 9,
                    "target" : {
                        "node" : 2,
                        "path" : "translation"
                    }
                },
                {
                    "sampler" : 10,
                    "target" : {
                        "node" : 2,
                        "path" : "rotation"
                    }
                },
                {
                    "sampler" : 11,
                    "target" : {
                        "node" : 2,
                        "path" : "scale"
                    }
                }
            ],
            "name" : "Fire",
            "samplers" : [
                {
                    "input" : 7,
                    "interpolation" : "LINEAR",
                    "output" : 8
                },
                {
                    "input" : 7,
                    "interpolation" : "LINEAR",
                    "output" : 9
                },
                {
                    "input" : 7,
                    "interpolation" : "LINEAR",
                    "output" : 10
                },
                {
                    "input" : 7,
                    "interpolation" : "LINEAR",
                    "output" : 11
                },
                {
                    "input" : 7,
                    "interpolation" : "LINEAR",
                    "output" : 12
                },
                {
                    "input" : 7,
                    "interpolation" : "LINEAR",
                    "output" : 13
                },
                {
                    "input" : 7,
                    "interpolation" : "LINEAR",
                    "output" : 14
                },
                {
                    "input" : 7,
                    "interpolation" : "LINEAR",
                    "output" : 15
                },
                {
                    "input" : 7,
                    "interpolation" : "LINEAR",
                    "output" : 16
                },
                {
                    "input" : 7,
                    "interpolation" : "LINEAR",
                    "output" : 17
                },
                {
                    "input" : 7,
                    "interpolation" : "LINEAR",
                    "output" : 18
                },
                {
                    "input" : 7,
                    "interpolation" : "LINEAR",
                    "output" : 19
                }
            ]
        },
        {
            "channels" : [
                {
                    "sampler" : 0,
                    "target" : {
                        "node" : 3,
                        "path" : "translation"
                    }
                },
                {
                    "sampler" : 1,
                    "target" : {
                        "node" : 3,
                        "path" : "rotation"
                    }
                },
                {
                    "sampler" : 2,
                    "target" : {
                        "node" : 3,
                        "path" : "scale"
                    }
                },
                {
                    "sampler" : 3,
                    "target" : {
                        "node" : 0,
                        "path" : "translation"
                    }
                },
                {
                    "sampler" : 4,
                    "target" : {
                        "node" : 0,
                        "path" : "rotation"
                    }
                },
                {
                    "sampler" : 5,
                    "target" : {
                        "node" : 0,
                        "path" : "scale"
                    }
                },
                {
                    "sampler" : 6,
                    "target" : {
                        "node" : 1,
                        "path" : "translation"
                    }
                },
                {
                    "sampler" : 7,
                    "target" : {
                        "node" : 1,
                        "path" : "rotation"
                    }
                },
                {
                    "sampler" : 8,
                    "target" : {
                        "node" : 1,
                        "path" : "scale"
                    }
                },
                {
                    "sampler" : 9,
                    "target" : {
                        "node" : 2,
                        "path" : "translation"
                    }
                },
                {
                    "sampler" : 10,
                    "target" : {
                        "node" : 2,
                        "path" : "rotation"
                    }
                },
                {
                    "sampler" : 11,
                    "target" : {
                        "node" : 2,
                        "path" : "scale"
                    }
                }
            ],
            "name" : "Reload",
            "samplers" : [
                {
                    "input" : 20,
                    "interpolation" : "LINEAR",
                    "output" : 21
                },
                {
                    "input" : 20,
                    "interpolation" : "LINEAR",
                    "output" : 22
                },
                {
                    "input" : 20,
                    "interpolation" : "LINEAR",
                    "output" : 23
                },
                {
                    "input" : 20,
                    "interpolation" : "LINEAR",
                    "output" : 24
                },
                {
                    "input" : 20,
                    "interpolation" : "LINEAR",
                    "output" : 25
                },
                {
                    "input" : 20,
                    "interpolation" : "LINEAR",
                    "output" : 26
                },
                {
                    "input" : 20,
                    "interpolation" : "LINEAR",
                    "output" : 27
                },
                {
                    "input" : 20,
                    "interpolation" : "LINEAR",
                    "output" : 28
                },
                {
                    "input" : 20,
                    "interpolation" : "LINEAR",
                    "output" : 29
                },
                {
                    "input" : 20,
                    "interpolation" : "LINEAR",
                    "output" : 30
                },
                {
                    "input" : 20,
                    "interpolation" : "LINEAR",
                    "output" : 31
                },
                {
                    "input" : 20,
                    "interpolation" : "LINEAR",
                    "output" : 32
                }
            ]
        }
    ],
    "meshes" : [
        {
            "name" : "Muzzle",
            "primitives" : [
                {
                    "attributes" : {
                        "POSITION" : 0,
                        "NORMAL" : 1,
                        "TEXCOORD_0" : 2,
                        "JOINTS_0" : 3,
                        "WEIGHTS_0" : 4
                    },
                    "indices" : 5
                }
            ]
        }
    ],
    "skins" : [
        {
            "inverseBindMatrices" : 6,
            "joints" : [
                3,
                0,
                1,
                2
            ],
            "name" : "PistolArmature"
        }
    ],
    "accessors" : [
        {
            "bufferView" : 0,
            "componentType" : 5126,
            "count" : 2723,
            "max" : [
                4.9364399909973145,
                3.0705699920654297,
                0.7561484575271606
            ],
            "min" : [
                -4.79899787902832,
                -3.233776092529297,
                -0.7561485767364502
            ],
            "type" : "VEC3"
        },
        {
            "bufferView" : 1,
            "componentType" : 5126,
            "count" : 2723,
            "type" : "VEC3"
        },
        {
            "bufferView" : 2,
            "componentType" : 5126,
            "count" : 2723,
            "type" : "VEC2"
        },
        {
            "bufferView" : 3,
            "componentType" : 5121,
            "count" : 2723,
            "type" : "VEC4"
        },
        {
            "bufferView" : 4,
            "componentType" : 5126,
            "count" : 2723,
            "type" : "VEC4"
        },
        {
            "bufferView" : 5,
            "componentType" : 5123,
            "count" : 4473,
            "type" : "SCALAR"
        },
        {
            "bufferView" : 6,
            "componentType" : 5126,
            "count" : 4,
            "type" : "MAT4"
        },
        {
            "bufferView" : 7,
            "componentType" : 5126,
            "count" : 18,
            "max" : [
                0.5666666666666667
            ],
            "min" : [
                0
            ],
            "type" : "SCALAR"
        },
        {
            "bufferView" : 8,
            "componentType" : 5126,
            "count" : 18,
            "type" : "VEC3"
        },
        {
            "bufferView" : 9,
            "componentType" : 5126,
            "count" : 18,
            "type" : "VEC4"
        },
        {
            "bufferView" : 10,
            "componentType" : 5126,
            "count" : 18,
            "type" : "VEC3"
        },
        {
            "bufferView" : 11,
            "componentType" : 5126,
            "count" : 18,
            "type" : "VEC3"
        },
        {
            "bufferView" : 12,
            "componentType" : 5126,
            "count" : 18,
            "type" : "VEC4"
        },
        {
            "bufferView" : 13,
            "componentType" : 5126,
            "count" : 18,
            "type" : "VEC3"
        },
        {
            "bufferView" : 14,
            "componentType" : 5126,
            "count" : 18,
            "type" : "VEC3"
        },
        {
            "bufferView" : 15,
            "componentType" : 5126,
            "count" : 18,
            "type" : "VEC4"
        },
        {
            "bufferView" : 16,
            "componentType" : 5126,
            "count" : 18,
            "type" : "VEC3"
        },
        {
            "bufferView" : 17,
            "componentType" : 5126,
            "count" : 18,
            "type" : "VEC3"
        },
        {
            "bufferView" : 18,
            "componentType" : 5126,
            "count" : 18,
            "type" : "VEC4"
        },
        {
            "bufferView" : 19,
            "componentType" : 5126,
            "count" : 18,
            "type" : "VEC3"
        },
        {
            "bufferView" : 20,
            "componentType" : 5126,
            "count" : 22,
            "max" : [
                0.7
            ],
            "min" : [
                0
            ],
            "type" : "SCALAR"
        },
        {
            "bufferView" : 21,
            "componentType" : 5126,
            "count" : 22,
            "type" : "VEC3"
        },
        {
            "bufferView" : 22,
            "componentType" : 5126,
            "count" : 22,
            "type" : "VEC4"
        },
        {
            "bufferView" : 23,
            "componentType" : 5126,
            "count" : 22,
            "type" : "VEC3"
        },
        {
            "bufferView" : 24,
            "componentType" : 5126,
            "count" : 22,
            "type" : "VEC3"
        },
        {
            "bufferView" : 25,
            "componentType" : 5126,
            "count" : 22,
            "type" : "VEC4"
        },
        {
            "bufferView" : 26,
            "componentType" : 5126,
            "count" : 22,
            "type" : "VEC3"
        },
        {
            "bufferView" : 27,
            "componentType" : 5126,
            "count" : 22,
            "type" : "VEC3"
        },
        {
            "bufferView" : 28,
            "componentType" : 5126,
            "count" : 22,
            "type" : "VEC4"
        },
        {
            "bufferView" : 29,
            "componentType" : 5126,
            "count" : 22,
            "type" : "VEC3"
        },
        {
            "bufferView" : 30,
            "componentType" : 5126,
            "count" : 22,
            "type" : "VEC3"
        },
        {
            "bufferView" : 31,
            "componentType" : 5126,
            "count" : 22,
            "type" : "VEC4"
        },
        {
            "bufferView" : 32,
            "componentType" : 5126,
            "count" : 22,
            "type" : "VEC3"
        }
    ],
    "bufferViews" : [
        {
            "buffer" : 0,
            "byteLength" : 32676,
            "byteOffset" : 0
        },
        {
            "buffer" : 0,
            "byteLength" : 32676,
            "byteOffset" : 32676
        },
        {
            "buffer" : 0,
            "byteLength" : 21784,
            "byteOffset" : 65352
        },
        {
            "buffer" : 0,
            "byteLength" : 10892,
            "byteOffset" : 87136
        },
        {
            "buffer" : 0,
            "byteLength" : 43568,
            "byteOffset" : 98028
        },
        {
            "buffer" : 0,
            "byteLength" : 8946,
            "byteOffset" : 141596
        },
        {
            "buffer" : 0,
            "byteLength" : 256,
            "byteOffset" : 150544
        },
        {
            "buffer" : 0,
            "byteLength" : 72,
            "byteOffset" : 150800
        },
        {
            "buffer" : 0,
            "byteLength" : 216,
            "byteOffset" : 150872
        },
        {
            "buffer" : 0,
            "byteLength" : 288,
            "byteOffset" : 151088
        },
        {
            "buffer" : 0,
            "byteLength" : 216,
            "byteOffset" : 151376
        },
        {
            "buffer" : 0,
            "byteLength" : 216,
            "byteOffset" : 151592
        },
        {
            "buffer" : 0,
            "byteLength" : 288,
            "byteOffset" : 151808
        },
        {
            "buffer" : 0,
            "byteLength" : 216,
            "byteOffset" : 152096
        },
        {
            "buffer" : 0,
            "byteLength" : 216,
            "byteOffset" : 152312
        },
        {
            "buffer" : 0,
            "byteLength" : 288,
            "byteOffset" : 152528
        },
        {
            "buffer" : 0,
            "byteLength" : 216,
            "byteOffset" : 152816
        },
        {
            "buffer" : 0,
            "byteLength" : 216,
            "byteOffset" : 153032
        },
        {
            "buffer" : 0,
            "byteLength" : 288,
            "byteOffset" : 153248
        },
        {
            "buffer" : 0,
            "byteLength" : 216,
            "byteOffset" : 153536
        },
        {
            "buffer" : 0,
            "byteLength" : 88,
            "byteOffset" : 153752
        },
        {
            "buffer" : 0,
            "byteLength" : 264,
            "byteOffset" : 153840
        },
        {
            "buffer" : 0,
            "byteLength" : 352,
            "byteOffset" : 154104
        },
        {
            "buffer" : 0,
            "byteLength" : 264,
            "byteOffset" : 154456
        },
        {
            "buffer" : 0,
            "byteLength" : 264,
            "byteOffset" : 154720
        },
        {
            "buffer" : 0,
            "byteLength" : 352,
            "byteOffset" : 154984
        },
        {
            "buffer" : 0,
            "byteLength" : 264,
            "byteOffset" : 155336
        },
        {
            "buffer" : 0,
            "byteLength" : 264,
            "byteOffset" : 155600
        },
        {
            "buffer" : 0,
            "byteLength" : 352,
            "byteOffset" : 155864
        },
        {
            "buffer" : 0,
            "byteLength" : 264,
            "byteOffset" : 156216
        },
        {
            "buffer" : 0,
            "byteLength" : 264,
            "byteOffset" : 156480
        },
        {
            "buffer" : 0,
            "byteLength" : 352,
            "byteOffset" : 156744
        },
        {
            "buffer" : 0,
            "byteLength" : 264,
            "byteOffset" : 157096
        }
    ],
    "buffers" : [
        {
            "byteLength" : 157360,
            "uri" : "data:application/octet-stream;base64,"
        }
    ]
}